<?xml version="1.0" encoding="utf-8" standalone="no"?>
<!DOCTYPE svg PUBLIC "-//W3C//DTD SVG 1.1//EN"
  "http://www.w3.org/Graphics/SVG/1.1/DTD/svg11.dtd">
<!-- Created with matplotlib (https://matplotlib.org/) -->
<svg height="426.96pt" version="1.1" viewBox="0 0 1074.96 426.96" width="1074.96pt" xmlns="http://www.w3.org/2000/svg" xmlns:xlink="http://www.w3.org/1999/xlink">
 <metadata>
  <rdf:RDF xmlns:cc="http://creativecommons.org/ns#" xmlns:dc="http://purl.org/dc/elements/1.1/" xmlns:rdf="http://www.w3.org/1999/02/22-rdf-syntax-ns#">
   <cc:Work>
    <dc:type rdf:resource="http://purl.org/dc/dcmitype/StillImage"/>
    <dc:date>2021-11-29T20:40:11.268010</dc:date>
    <dc:format>image/svg+xml</dc:format>
    <dc:creator>
     <cc:Agent>
      <dc:title>Matplotlib v3.3.4, https://matplotlib.org/</dc:title>
     </cc:Agent>
    </dc:creator>
   </cc:Work>
  </rdf:RDF>
 </metadata>
 <defs>
  <style type="text/css">*{stroke-linecap:butt;stroke-linejoin:round;}</style>
 </defs>
 <g id="figure_1">
  <g id="patch_1">
   <path d="M 0 426.96 
L 1074.96 426.96 
L 1074.96 0 
L 0 0 
z
" style="fill:#ffffff;"/>
  </g>
  <g id="axes_1">
   <g id="patch_2">
    <path d="M 74.6975 366.5725 
L 1064.16 366.5725 
L 1064.16 41.3475 
L 74.6975 41.3475 
z
" style="fill:#ffffff;"/>
   </g>
   <g id="matplotlib.axis_1">
    <g id="xtick_1">
     <g id="line2d_1">
      <path clip-path="url(#p20215f0c59)" d="M 119.673068 366.5725 
L 119.673068 41.3475 
" style="fill:none;stroke:#b0b0b0;stroke-linecap:square;stroke-width:0.8;"/>
     </g>
     <g id="line2d_2">
      <defs>
       <path d="M 0 0 
L 0 3.5 
" id="m2ff4ce8ee5" style="stroke:#000000;stroke-width:0.8;"/>
      </defs>
      <g>
       <use style="stroke:#000000;stroke-width:0.8;" x="119.673068" xlink:href="#m2ff4ce8ee5" y="366.5725"/>
      </g>
     </g>
     <g id="text_1">
      <!-- 0 -->
      <g transform="translate(114.673068 387.3225)scale(0.2 -0.2)">
       <defs>
        <path d="M 3.125 29.296875 
Q 3.90625 50 6.4375 56.046875 
Q 8.984375 62.109375 13.671875 66.015625 
Q 18.359375 69.921875 25.1875 69.921875 
Q 32.03125 69.921875 37.109375 64.25 
Q 42.1875 58.59375 43.75 50 
Q 45.3125 41.40625 44.71875 30.265625 
Q 44.140625 19.140625 40.8125 12.109375 
Q 37.5 5.078125 30.859375 2.34375 
Q 24.21875 -0.390625 17.578125 2.921875 
Q 10.9375 6.25 8.203125 11.71875 
Q 5.46875 17.1875 4.296875 23.234375 
Q 3.125 29.296875 3.90625 50 
z
M 12.890625 52.734375 
Q 10.546875 31.25 12.5 22.84375 
Q 14.453125 14.453125 18.9375 10.9375 
Q 23.4375 7.421875 28.125 9.5625 
Q 32.8125 11.71875 34.953125 18.15625 
Q 37.109375 24.609375 37.109375 32.21875 
Q 37.109375 39.84375 36.515625 46.09375 
Q 35.9375 52.34375 33 57.421875 
Q 30.078125 62.5 25.1875 62.6875 
Q 20.3125 62.890625 16.59375 57.8125 
Q 12.890625 52.734375 10.546875 31.25 
z
" id="SimHei-48"/>
       </defs>
       <use xlink:href="#SimHei-48"/>
      </g>
     </g>
    </g>
    <g id="xtick_2">
     <g id="line2d_3">
      <path clip-path="url(#p20215f0c59)" d="M 301.392536 366.5725 
L 301.392536 41.3475 
" style="fill:none;stroke:#b0b0b0;stroke-linecap:square;stroke-width:0.8;"/>
     </g>
     <g id="line2d_4">
      <g>
       <use style="stroke:#000000;stroke-width:0.8;" x="301.392536" xlink:href="#m2ff4ce8ee5" y="366.5725"/>
      </g>
     </g>
     <g id="text_2">
      <!-- 20 -->
      <g transform="translate(291.392536 387.3225)scale(0.2 -0.2)">
       <defs>
        <path d="M 4.6875 3.90625 
Q 5.078125 9.765625 10.15625 14.453125 
Q 15.234375 19.140625 23.046875 29.09375 
Q 30.859375 39.0625 33.203125 44.53125 
Q 35.546875 50 34.953125 53.90625 
Q 34.375 57.8125 31.25 60.34375 
Q 28.125 62.890625 24.015625 62.5 
Q 19.921875 62.109375 16.203125 59.375 
Q 12.5 56.640625 10.546875 51.171875 
L 3.125 52.34375 
Q 6.25 61.328125 11.125 65.421875 
Q 16.015625 69.53125 22.65625 69.921875 
Q 26.5625 70.3125 29.6875 69.71875 
Q 32.8125 69.140625 36.125 66.984375 
Q 39.453125 64.84375 41.59375 60.546875 
Q 43.75 56.25 43.15625 50.1875 
Q 42.578125 44.140625 37.109375 35.734375 
Q 31.640625 27.34375 16.015625 9.375 
L 44.140625 9.375 
L 44.140625 2.34375 
L 4.6875 2.34375 
z
" id="SimHei-50"/>
       </defs>
       <use xlink:href="#SimHei-50"/>
       <use x="50" xlink:href="#SimHei-48"/>
      </g>
     </g>
    </g>
    <g id="xtick_3">
     <g id="line2d_5">
      <path clip-path="url(#p20215f0c59)" d="M 483.112003 366.5725 
L 483.112003 41.3475 
" style="fill:none;stroke:#b0b0b0;stroke-linecap:square;stroke-width:0.8;"/>
     </g>
     <g id="line2d_6">
      <g>
       <use style="stroke:#000000;stroke-width:0.8;" x="483.112003" xlink:href="#m2ff4ce8ee5" y="366.5725"/>
      </g>
     </g>
     <g id="text_3">
      <!-- 40 -->
      <g transform="translate(473.112003 387.3225)scale(0.2 -0.2)">
       <defs>
        <path d="M 31.25 17.1875 
L 1.171875 17.1875 
L 1.171875 23.828125 
L 32.8125 69.53125 
L 38.671875 69.53125 
L 38.671875 23.828125 
L 48.046875 23.828125 
L 48.046875 17.1875 
L 38.671875 17.1875 
L 38.671875 2.34375 
L 31.25 2.34375 
z
M 31.25 23.828125 
L 31.25 54.6875 
L 9.375 23.828125 
z
" id="SimHei-52"/>
       </defs>
       <use xlink:href="#SimHei-52"/>
       <use x="50" xlink:href="#SimHei-48"/>
      </g>
     </g>
    </g>
    <g id="xtick_4">
     <g id="line2d_7">
      <path clip-path="url(#p20215f0c59)" d="M 664.83147 366.5725 
L 664.83147 41.3475 
" style="fill:none;stroke:#b0b0b0;stroke-linecap:square;stroke-width:0.8;"/>
     </g>
     <g id="line2d_8">
      <g>
       <use style="stroke:#000000;stroke-width:0.8;" x="664.83147" xlink:href="#m2ff4ce8ee5" y="366.5725"/>
      </g>
     </g>
     <g id="text_4">
      <!-- 60 -->
      <g transform="translate(654.83147 387.3225)scale(0.2 -0.2)">
       <defs>
        <path d="M 3.515625 19.53125 
Q 4.296875 30.859375 6.046875 34.765625 
Q 7.8125 38.671875 11.328125 44.53125 
L 27.34375 69.53125 
L 36.328125 69.53125 
L 19.921875 43.75 
Q 30.46875 46.484375 36.71875 42.96875 
Q 42.96875 39.453125 45.109375 34.953125 
Q 47.265625 30.46875 47.453125 25.1875 
Q 47.65625 19.921875 45.890625 14.84375 
Q 44.140625 9.765625 39.640625 5.65625 
Q 35.15625 1.5625 27.140625 1.171875 
Q 19.140625 0.78125 13.46875 4.09375 
Q 7.8125 7.421875 5.65625 13.46875 
Q 3.515625 19.53125 4.296875 30.859375 
z
M 12.5 16.015625 
Q 19.53125 8.59375 25.390625 8.203125 
Q 31.25 7.8125 35.15625 12.109375 
Q 39.0625 16.40625 39.0625 24.609375 
Q 39.0625 32.8125 34.171875 35.9375 
Q 29.296875 39.0625 23.234375 38.28125 
Q 17.1875 37.5 14.453125 32.421875 
Q 11.71875 27.34375 12.109375 21.671875 
Q 12.5 16.015625 19.53125 8.59375 
z
" id="SimHei-54"/>
       </defs>
       <use xlink:href="#SimHei-54"/>
       <use x="50" xlink:href="#SimHei-48"/>
      </g>
     </g>
    </g>
    <g id="xtick_5">
     <g id="line2d_9">
      <path clip-path="url(#p20215f0c59)" d="M 846.550938 366.5725 
L 846.550938 41.3475 
" style="fill:none;stroke:#b0b0b0;stroke-linecap:square;stroke-width:0.8;"/>
     </g>
     <g id="line2d_10">
      <g>
       <use style="stroke:#000000;stroke-width:0.8;" x="846.550938" xlink:href="#m2ff4ce8ee5" y="366.5725"/>
      </g>
     </g>
     <g id="text_5">
      <!-- 80 -->
      <g transform="translate(836.550938 387.3225)scale(0.2 -0.2)">
       <defs>
        <path d="M 2.734375 16.796875 
Q 2.734375 26.171875 5.078125 30.65625 
Q 7.421875 35.15625 12.890625 37.890625 
Q 8.203125 40.625 6.640625 43.9375 
Q 5.078125 47.265625 4.875 51.5625 
Q 4.6875 55.859375 6.046875 58.984375 
Q 7.421875 62.109375 10.15625 64.84375 
Q 12.890625 67.578125 16.203125 68.546875 
Q 19.53125 69.53125 23.4375 69.53125 
Q 27.34375 69.53125 30.46875 68.75 
Q 33.59375 67.96875 37.109375 65.421875 
Q 40.625 62.890625 42.1875 58.203125 
Q 43.75 53.515625 41.984375 47.265625 
Q 40.234375 41.015625 32.8125 37.5 
Q 39.453125 35.546875 42.1875 31.4375 
Q 44.921875 27.34375 44.921875 21.484375 
Q 44.921875 15.625 43.15625 12.109375 
Q 41.40625 8.59375 39.25 6.25 
Q 37.109375 3.90625 33.390625 2.53125 
Q 29.6875 1.171875 24.015625 1.171875 
Q 18.359375 1.171875 14.25 2.53125 
Q 10.15625 3.90625 7.421875 6.640625 
Q 4.6875 9.375 3.703125 13.078125 
Q 2.734375 16.796875 2.734375 26.171875 
z
M 10.9375 26.5625 
Q 10.546875 17.1875 12.296875 13.671875 
Q 14.0625 10.15625 18.75 9.171875 
Q 23.4375 8.203125 28.515625 9.375 
Q 33.59375 10.546875 35.546875 14.84375 
Q 37.5 19.140625 36.90625 23.4375 
Q 36.328125 27.734375 32.03125 30.65625 
Q 27.734375 33.59375 22.65625 33.203125 
Q 17.578125 32.8125 14.25 29.6875 
Q 10.9375 26.5625 10.546875 17.1875 
z
M 12.109375 56.25 
Q 12.109375 48.4375 14.84375 44.921875 
Q 17.578125 41.40625 23.4375 41.40625 
Q 29.296875 41.40625 32.21875 44.921875 
Q 35.15625 48.4375 34.953125 53.3125 
Q 34.765625 58.203125 31.4375 60.546875 
Q 28.125 62.890625 22.453125 62.5 
Q 16.796875 62.109375 14.453125 59.171875 
Q 12.109375 56.25 12.109375 48.4375 
z
" id="SimHei-56"/>
       </defs>
       <use xlink:href="#SimHei-56"/>
       <use x="50" xlink:href="#SimHei-48"/>
      </g>
     </g>
    </g>
    <g id="xtick_6">
     <g id="line2d_11">
      <path clip-path="url(#p20215f0c59)" d="M 1028.270405 366.5725 
L 1028.270405 41.3475 
" style="fill:none;stroke:#b0b0b0;stroke-linecap:square;stroke-width:0.8;"/>
     </g>
     <g id="line2d_12">
      <g>
       <use style="stroke:#000000;stroke-width:0.8;" x="1028.270405" xlink:href="#m2ff4ce8ee5" y="366.5725"/>
      </g>
     </g>
     <g id="text_6">
      <!-- 100 -->
      <g transform="translate(1013.270405 387.3225)scale(0.2 -0.2)">
       <defs>
        <path d="M 21.875 56.25 
Q 16.796875 51.171875 8.984375 46.484375 
L 8.984375 53.90625 
Q 18.75 60.546875 25 69.53125 
L 29.6875 69.53125 
L 29.6875 2.34375 
L 21.875 2.34375 
z
" id="SimHei-49"/>
       </defs>
       <use xlink:href="#SimHei-49"/>
       <use x="50" xlink:href="#SimHei-48"/>
       <use x="100" xlink:href="#SimHei-48"/>
      </g>
     </g>
    </g>
    <g id="text_7">
     <!-- 权值下标 -->
     <g transform="translate(519.42875 413.549062)scale(0.25 -0.25)">
      <defs>
       <path d="M 42.1875 71.484375 
Q 50.78125 71.09375 58.203125 71.09375 
L 88.671875 71.09375 
Q 87.109375 54.6875 83.390625 42.765625 
Q 79.6875 30.859375 69.921875 16.796875 
Q 74.609375 10.546875 81.25 6.640625 
Q 87.890625 2.734375 96.484375 0 
Q 91.015625 -4.296875 89.84375 -7.8125 
Q 80.859375 -3.515625 74.609375 1.5625 
Q 68.359375 6.640625 64.84375 11.328125 
Q 59.765625 5.46875 54.296875 0.96875 
Q 48.828125 -3.515625 39.0625 -9.375 
Q 37.5 -5.46875 32.8125 -1.953125 
Q 38.671875 0 46.09375 4.296875 
Q 53.515625 8.59375 60.15625 16.796875 
Q 56.640625 21.484375 53.125 31.828125 
Q 49.609375 42.1875 47.65625 64.453125 
L 42.1875 64.453125 
z
M 3.125 21.09375 
Q 8.984375 27.34375 12.890625 35.546875 
Q 16.796875 43.75 19.53125 53.90625 
Q 12.890625 53.90625 6.640625 53.515625 
L 6.640625 60.546875 
Q 13.671875 60.15625 20.703125 60.15625 
Q 20.703125 76.5625 20.3125 82.03125 
L 28.90625 82.03125 
Q 28.125 77.34375 28.125 60.15625 
Q 33.984375 60.15625 40.625 60.546875 
L 40.625 53.515625 
Q 33.984375 53.90625 28.125 53.90625 
L 28.125 39.453125 
Q 30.859375 41.015625 33.984375 43.359375 
Q 41.015625 33.984375 42.96875 29.296875 
Q 38.671875 26.953125 36.328125 24.609375 
Q 34.375 30.078125 28.125 37.109375 
L 28.125 8.203125 
Q 28.125 0 28.515625 -9.375 
L 19.921875 -9.375 
Q 20.703125 0 20.703125 8.203125 
L 20.703125 37.109375 
Q 17.578125 26.171875 8.984375 14.0625 
Q 6.640625 19.140625 3.125 21.09375 
z
M 55.078125 64.84375 
Q 57.421875 44.53125 59.171875 37.6875 
Q 60.9375 30.859375 65.234375 23.046875 
Q 69.921875 30.078125 74.21875 40.421875 
Q 78.515625 50.78125 79.6875 64.84375 
L 55.078125 64.84375 
z
" id="SimHei-26435"/>
       <path d="M 57.421875 69.53125 
L 57.421875 79.6875 
Q 62.109375 79.296875 67.96875 78.90625 
Q 66.015625 76.171875 65.625 69.53125 
L 80.078125 69.53125 
Q 86.71875 69.53125 91.796875 69.921875 
L 91.796875 62.890625 
Q 86.328125 63.28125 80.078125 63.28125 
L 65.234375 63.28125 
L 64.453125 54.6875 
L 84.375 54.6875 
Q 83.984375 50 83.984375 42.1875 
L 83.984375 2.34375 
Q 91.796875 2.34375 95.3125 2.734375 
L 95.3125 -4.296875 
Q 90.234375 -3.90625 81.25 -3.90625 
L 44.53125 -3.90625 
Q 35.546875 -3.90625 29.6875 -4.296875 
L 29.6875 2.734375 
Q 33.203125 2.34375 40.625 2.34375 
L 40.625 42.1875 
Q 40.625 49.609375 40.234375 54.6875 
L 56.25 54.6875 
L 57.03125 63.28125 
L 50 63.28125 
Q 40.234375 63.28125 34.765625 62.890625 
L 34.765625 69.921875 
Q 39.84375 69.53125 50 69.53125 
z
M 34.765625 76.5625 
Q 31.640625 73.046875 25.78125 58.59375 
L 25.78125 7.03125 
Q 25.78125 -1.171875 26.171875 -8.59375 
L 17.96875 -8.59375 
Q 18.359375 -1.953125 18.359375 5.859375 
L 18.359375 46.09375 
Q 13.671875 38.28125 9.765625 33.59375 
Q 6.640625 37.890625 3.90625 40.234375 
Q 7.8125 44.140625 14.640625 55.265625 
Q 21.484375 66.40625 25.390625 80.46875 
Q 30.859375 77.734375 34.765625 76.5625 
z
M 76.953125 41.40625 
L 76.953125 49.21875 
L 48.046875 49.21875 
L 48.046875 41.40625 
z
M 76.953125 2.34375 
L 76.953125 9.765625 
L 48.046875 9.765625 
L 48.046875 2.34375 
z
M 76.953125 15.625 
L 76.953125 22.65625 
L 48.046875 22.65625 
L 48.046875 15.625 
z
M 76.953125 28.515625 
L 76.953125 35.546875 
L 48.046875 35.546875 
L 48.046875 28.515625 
z
" id="SimHei-20540"/>
       <path d="M 78.125 73.4375 
Q 85.546875 73.4375 93.359375 73.828125 
L 93.359375 65.625 
Q 84.765625 66.015625 78.125 66.015625 
L 51.171875 66.015625 
L 51.171875 5.859375 
Q 51.171875 0.78125 51.5625 -7.03125 
L 42.578125 -7.03125 
Q 42.96875 0 42.96875 5.859375 
L 42.96875 66.015625 
L 21.484375 66.015625 
Q 13.671875 66.015625 6.25 65.625 
L 6.25 73.828125 
Q 13.671875 73.4375 21.484375 73.4375 
z
M 88.28125 21.875 
Q 84.375 19.140625 81.25 15.625 
Q 75 23.828125 57.03125 40.234375 
L 62.890625 46.09375 
Q 73.4375 37.5 88.28125 21.875 
z
" id="SimHei-19979"/>
       <path d="M 19.921875 68.75 
Q 19.921875 75 19.53125 80.859375 
L 27.34375 80.859375 
Q 26.953125 75.390625 26.953125 68.75 
L 26.953125 59.375 
Q 33.203125 59.375 40.234375 59.765625 
L 40.234375 52.34375 
Q 33.203125 52.734375 26.953125 52.734375 
L 26.953125 39.453125 
Q 29.6875 41.40625 32.421875 43.75 
Q 37.5 35.546875 41.40625 27.734375 
Q 37.109375 25.78125 33.984375 23.4375 
Q 31.640625 31.25 26.953125 37.890625 
L 26.953125 7.421875 
Q 26.953125 -0.78125 27.34375 -8.984375 
L 19.53125 -8.984375 
Q 19.921875 -0.390625 19.921875 7.421875 
L 19.921875 32.8125 
Q 16.015625 21.875 7.8125 11.71875 
Q 5.46875 14.84375 1.953125 17.578125 
Q 8.59375 24.21875 12.6875 34.171875 
Q 16.796875 44.140625 17.96875 52.734375 
Q 10.546875 52.734375 5.078125 51.953125 
L 5.078125 59.765625 
Q 12.5 59.375 19.921875 59.375 
z
M 80.859375 48.828125 
Q 88.671875 48.828125 94.53125 49.21875 
L 94.53125 41.796875 
Q 88.671875 42.1875 82.421875 42.1875 
L 70.3125 42.1875 
L 70.3125 2.734375 
Q 70.3125 -3.515625 66.796875 -5.46875 
Q 63.28125 -7.421875 54.296875 -8.59375 
Q 53.515625 -3.90625 51.171875 0.390625 
Q 58.984375 0.390625 60.9375 0.96875 
Q 62.890625 1.5625 62.890625 5.46875 
L 62.890625 42.1875 
L 53.125 42.1875 
Q 43.359375 42.1875 39.0625 41.40625 
L 39.0625 49.21875 
Q 44.140625 48.828125 53.125 48.828125 
z
M 76.5625 74.609375 
Q 84.765625 74.609375 89.84375 75 
L 89.84375 67.1875 
Q 82.421875 67.96875 74.21875 67.96875 
L 55.078125 67.96875 
Q 48.828125 67.96875 42.96875 67.1875 
L 42.96875 75 
Q 48.4375 74.609375 55.078125 74.609375 
z
M 82.421875 31.640625 
Q 91.015625 18.359375 96.875 7.8125 
Q 92.578125 5.859375 88.28125 3.125 
Q 83.984375 14.453125 75.390625 26.953125 
Q 79.296875 28.90625 82.421875 31.640625 
z
M 56.25 27.734375 
Q 54.6875 25.390625 50.390625 15.234375 
Q 46.09375 5.078125 43.75 0.78125 
Q 40.234375 2.734375 35.9375 4.296875 
Q 41.015625 12.109375 43.546875 18.546875 
Q 46.09375 25 47.65625 31.25 
Q 51.953125 29.296875 56.25 27.734375 
z
" id="SimHei-26631"/>
      </defs>
      <use xlink:href="#SimHei-26435"/>
      <use x="100" xlink:href="#SimHei-20540"/>
      <use x="200" xlink:href="#SimHei-19979"/>
      <use x="300" xlink:href="#SimHei-26631"/>
     </g>
    </g>
   </g>
   <g id="matplotlib.axis_2">
    <g id="ytick_1">
     <g id="line2d_13">
      <path clip-path="url(#p20215f0c59)" d="M 74.6975 351.789545 
L 1064.16 351.789545 
" style="fill:none;stroke:#b0b0b0;stroke-linecap:square;stroke-width:0.8;"/>
     </g>
     <g id="line2d_14">
      <defs>
       <path d="M 0 0 
L -3.5 0 
" id="m5186672bb7" style="stroke:#000000;stroke-width:0.8;"/>
      </defs>
      <g>
       <use style="stroke:#000000;stroke-width:0.8;" x="74.6975" xlink:href="#m5186672bb7" y="351.789545"/>
      </g>
     </g>
     <g id="text_8">
      <!-- 0.0 -->
      <g transform="translate(37.6975 358.664545)scale(0.2 -0.2)">
       <defs>
        <path d="M 16.796875 1.953125 
L 7.8125 1.953125 
L 7.8125 10.546875 
L 16.796875 10.546875 
z
" id="SimHei-46"/>
       </defs>
       <use xlink:href="#SimHei-48"/>
       <use x="50" xlink:href="#SimHei-46"/>
       <use x="100" xlink:href="#SimHei-48"/>
      </g>
     </g>
    </g>
    <g id="ytick_2">
     <g id="line2d_15">
      <path clip-path="url(#p20215f0c59)" d="M 74.6975 292.657727 
L 1064.16 292.657727 
" style="fill:none;stroke:#b0b0b0;stroke-linecap:square;stroke-width:0.8;"/>
     </g>
     <g id="line2d_16">
      <g>
       <use style="stroke:#000000;stroke-width:0.8;" x="74.6975" xlink:href="#m5186672bb7" y="292.657727"/>
      </g>
     </g>
     <g id="text_9">
      <!-- 0.2 -->
      <g transform="translate(37.6975 299.532727)scale(0.2 -0.2)">
       <use xlink:href="#SimHei-48"/>
       <use x="50" xlink:href="#SimHei-46"/>
       <use x="100" xlink:href="#SimHei-50"/>
      </g>
     </g>
    </g>
    <g id="ytick_3">
     <g id="line2d_17">
      <path clip-path="url(#p20215f0c59)" d="M 74.6975 233.525909 
L 1064.16 233.525909 
" style="fill:none;stroke:#b0b0b0;stroke-linecap:square;stroke-width:0.8;"/>
     </g>
     <g id="line2d_18">
      <g>
       <use style="stroke:#000000;stroke-width:0.8;" x="74.6975" xlink:href="#m5186672bb7" y="233.525909"/>
      </g>
     </g>
     <g id="text_10">
      <!-- 0.4 -->
      <g transform="translate(37.6975 240.400909)scale(0.2 -0.2)">
       <use xlink:href="#SimHei-48"/>
       <use x="50" xlink:href="#SimHei-46"/>
       <use x="100" xlink:href="#SimHei-52"/>
      </g>
     </g>
    </g>
    <g id="ytick_4">
     <g id="line2d_19">
      <path clip-path="url(#p20215f0c59)" d="M 74.6975 174.394091 
L 1064.16 174.394091 
" style="fill:none;stroke:#b0b0b0;stroke-linecap:square;stroke-width:0.8;"/>
     </g>
     <g id="line2d_20">
      <g>
       <use style="stroke:#000000;stroke-width:0.8;" x="74.6975" xlink:href="#m5186672bb7" y="174.394091"/>
      </g>
     </g>
     <g id="text_11">
      <!-- 0.6 -->
      <g transform="translate(37.6975 181.269091)scale(0.2 -0.2)">
       <use xlink:href="#SimHei-48"/>
       <use x="50" xlink:href="#SimHei-46"/>
       <use x="100" xlink:href="#SimHei-54"/>
      </g>
     </g>
    </g>
    <g id="ytick_5">
     <g id="line2d_21">
      <path clip-path="url(#p20215f0c59)" d="M 74.6975 115.262273 
L 1064.16 115.262273 
" style="fill:none;stroke:#b0b0b0;stroke-linecap:square;stroke-width:0.8;"/>
     </g>
     <g id="line2d_22">
      <g>
       <use style="stroke:#000000;stroke-width:0.8;" x="74.6975" xlink:href="#m5186672bb7" y="115.262273"/>
      </g>
     </g>
     <g id="text_12">
      <!-- 0.8 -->
      <g transform="translate(37.6975 122.137273)scale(0.2 -0.2)">
       <use xlink:href="#SimHei-48"/>
       <use x="50" xlink:href="#SimHei-46"/>
       <use x="100" xlink:href="#SimHei-56"/>
      </g>
     </g>
    </g>
    <g id="ytick_6">
     <g id="line2d_23">
      <path clip-path="url(#p20215f0c59)" d="M 74.6975 56.130455 
L 1064.16 56.130455 
" style="fill:none;stroke:#b0b0b0;stroke-linecap:square;stroke-width:0.8;"/>
     </g>
     <g id="line2d_24">
      <g>
       <use style="stroke:#000000;stroke-width:0.8;" x="74.6975" xlink:href="#m5186672bb7" y="56.130455"/>
      </g>
     </g>
     <g id="text_13">
      <!-- 1.0 -->
      <g transform="translate(37.6975 63.005455)scale(0.2 -0.2)">
       <use xlink:href="#SimHei-49"/>
       <use x="50" xlink:href="#SimHei-46"/>
       <use x="100" xlink:href="#SimHei-48"/>
      </g>
     </g>
    </g>
    <g id="text_14">
     <!-- 权值大小 -->
     <g transform="translate(30.5725 253.96)rotate(-90)scale(0.25 -0.25)">
      <defs>
       <path d="M 45.3125 53.125 
Q 45.703125 66.796875 45.5 71.484375 
Q 45.3125 76.171875 44.921875 80.46875 
Q 49.609375 79.6875 55.46875 79.296875 
Q 54.296875 75.390625 53.703125 67.96875 
Q 53.125 60.546875 53.125 53.125 
L 73.046875 53.125 
Q 83.59375 53.125 92.578125 53.90625 
L 92.578125 45.3125 
Q 84.765625 45.703125 76.5625 45.703125 
L 53.515625 45.703125 
Q 55.078125 39.0625 58.984375 32.21875 
Q 62.890625 25.390625 66.984375 20.109375 
Q 71.09375 14.84375 78.3125 8.984375 
Q 85.546875 3.125 94.140625 -0.78125 
Q 91.015625 -3.125 87.890625 -8.59375 
Q 80.859375 -4.6875 74.015625 1.171875 
Q 67.1875 7.03125 60.34375 16.59375 
Q 53.515625 26.171875 50 34.375 
Q 46.875 25.78125 43.359375 20.109375 
Q 39.84375 14.453125 35.734375 9.765625 
Q 31.640625 5.078125 25.1875 0.390625 
Q 18.75 -4.296875 10.546875 -8.984375 
Q 7.421875 -4.296875 3.515625 -0.78125 
Q 11.71875 1.953125 19.71875 7.03125 
Q 27.734375 12.109375 32.8125 18.546875 
Q 37.890625 25 41.015625 32.03125 
Q 44.140625 39.0625 44.921875 45.703125 
L 23.4375 45.703125 
Q 14.0625 45.703125 8.59375 45.3125 
L 8.59375 53.90625 
Q 14.0625 53.515625 23.4375 53.125 
z
" id="SimHei-22823"/>
       <path d="M 54.6875 80.46875 
Q 54.296875 75 54.296875 65.625 
L 54.296875 2.734375 
Q 54.296875 -4.6875 50.390625 -6.640625 
Q 46.484375 -8.59375 37.109375 -9.375 
Q 36.328125 -4.6875 33.59375 -0.390625 
Q 42.1875 -0.390625 44.328125 0 
Q 46.484375 0.390625 46.484375 4.6875 
L 46.484375 65.625 
Q 46.484375 72.65625 46.09375 80.46875 
L 54.6875 80.46875 
z
M 32.421875 53.125 
Q 28.90625 43.359375 24.21875 30.65625 
Q 19.53125 17.96875 16.015625 11.71875 
Q 12.109375 14.84375 7.8125 15.625 
Q 14.453125 27.34375 18.359375 38.859375 
Q 22.265625 50.390625 23.4375 55.859375 
Q 28.125 53.515625 32.421875 53.125 
z
M 73.046875 56.25 
Q 88.671875 28.125 91.796875 17.96875 
Q 87.890625 17.1875 83.984375 14.453125 
Q 78.125 31.25 66.015625 51.953125 
Q 69.140625 53.515625 73.046875 56.25 
z
" id="SimHei-23567"/>
      </defs>
      <use xlink:href="#SimHei-26435"/>
      <use x="100" xlink:href="#SimHei-20540"/>
      <use x="200" xlink:href="#SimHei-22823"/>
      <use x="300" xlink:href="#SimHei-23567"/>
     </g>
    </g>
   </g>
   <g id="line2d_25">
    <path clip-path="url(#p20215f0c59)" d="M 119.673068 56.130455 
L 128.759042 59.11691 
L 137.845015 62.103365 
L 146.930988 65.089821 
L 156.016962 68.076276 
L 165.102935 71.062732 
L 174.188908 74.049187 
L 183.274882 77.035643 
L 192.360855 80.022098 
L 201.446829 83.008554 
L 210.532802 85.995009 
L 219.618775 88.981465 
L 228.704749 91.96792 
L 237.790722 94.954376 
L 246.876695 97.940831 
L 255.962669 100.927287 
L 265.048642 103.913742 
L 274.134615 106.900197 
L 283.220589 109.886653 
L 292.306562 112.873108 
L 301.392536 115.859564 
L 310.478509 118.846019 
L 319.564482 121.832475 
L 328.650456 124.81893 
L 337.736429 127.805386 
L 346.822402 130.791841 
L 355.908376 133.778297 
L 364.994349 136.764752 
L 374.080323 139.751208 
L 383.166296 142.737663 
L 392.252269 145.724118 
L 401.338243 148.710574 
L 410.424216 151.697029 
L 419.510189 154.683485 
L 428.596163 157.66994 
L 437.682136 160.656396 
L 446.76811 163.642851 
L 455.854083 166.629307 
L 464.940056 169.615762 
L 474.02603 172.602218 
L 483.112003 175.588673 
L 492.197976 178.575129 
L 501.28395 181.561584 
L 510.369923 184.548039 
L 519.455896 187.534495 
L 528.54187 190.52095 
L 537.627843 193.507406 
L 546.713817 196.493861 
L 555.79979 199.480317 
L 564.885763 202.466772 
L 573.971737 205.453228 
L 583.05771 208.439683 
L 592.143683 211.426139 
L 601.229657 214.412594 
L 610.31563 217.39905 
L 619.401604 220.385505 
L 628.487577 223.371961 
L 637.57355 226.358416 
L 646.659524 229.344871 
L 655.745497 232.331327 
L 664.83147 235.317782 
L 673.917444 238.304238 
L 683.003417 241.290693 
L 692.08939 244.277149 
L 701.175364 247.263604 
L 710.261337 250.25006 
L 719.347311 253.236515 
L 728.433284 256.222971 
L 737.519257 259.209426 
L 746.605231 262.195882 
L 755.691204 265.182337 
L 764.777177 268.168792 
L 773.863151 271.155248 
L 782.949124 274.141703 
L 792.035098 277.128159 
L 801.121071 280.114614 
L 810.207044 283.10107 
L 819.293018 286.087525 
L 828.378991 289.073981 
L 837.464964 292.060436 
L 846.550938 295.046892 
L 855.636911 298.033347 
L 864.722885 301.019803 
L 873.808858 304.006258 
L 882.894831 306.992713 
L 891.980805 309.979169 
L 901.066778 312.965624 
L 910.152751 315.95208 
L 919.238725 318.938535 
L 928.324698 321.924991 
L 937.410671 324.911446 
L 946.496645 327.897902 
L 955.582618 330.884357 
L 964.668592 333.870813 
L 973.754565 336.857268 
L 982.840538 339.843724 
L 991.926512 342.830179 
L 1001.012485 345.816635 
L 1010.098458 348.80309 
L 1019.184432 351.789545 
" style="fill:none;stroke:#1f77b4;stroke-linecap:square;stroke-width:2;"/>
   </g>
   <g id="line2d_26">
    <path clip-path="url(#p20215f0c59)" d="M 119.673068 351.789545 
L 128.759042 348.80309 
L 137.845015 345.816635 
L 146.930988 342.830179 
L 156.016962 339.843724 
L 165.102935 336.857268 
L 174.188908 333.870813 
L 183.274882 330.884357 
L 192.360855 327.897902 
L 201.446829 324.911446 
L 210.532802 321.924991 
L 219.618775 318.938535 
L 228.704749 315.95208 
L 237.790722 312.965624 
L 246.876695 309.979169 
L 255.962669 306.992713 
L 265.048642 304.006258 
L 274.134615 301.019803 
L 283.220589 298.033347 
L 292.306562 295.046892 
L 301.392536 292.060436 
L 310.478509 289.073981 
L 319.564482 286.087525 
L 328.650456 283.10107 
L 337.736429 280.114614 
L 346.822402 277.128159 
L 355.908376 274.141703 
L 364.994349 271.155248 
L 374.080323 268.168792 
L 383.166296 265.182337 
L 392.252269 262.195882 
L 401.338243 259.209426 
L 410.424216 256.222971 
L 419.510189 253.236515 
L 428.596163 250.25006 
L 437.682136 247.263604 
L 446.76811 244.277149 
L 455.854083 241.290693 
L 464.940056 238.304238 
L 474.02603 235.317782 
L 483.112003 232.331327 
L 492.197976 229.344871 
L 501.28395 226.358416 
L 510.369923 223.371961 
L 519.455896 220.385505 
L 528.54187 217.39905 
L 537.627843 214.412594 
L 546.713817 211.426139 
L 555.79979 208.439683 
L 564.885763 205.453228 
L 573.971737 202.466772 
L 583.05771 199.480317 
L 592.143683 196.493861 
L 601.229657 193.507406 
L 610.31563 190.52095 
L 619.401604 187.534495 
L 628.487577 184.548039 
L 637.57355 181.561584 
L 646.659524 178.575129 
L 655.745497 175.588673 
L 664.83147 172.602218 
L 673.917444 169.615762 
L 683.003417 166.629307 
L 692.08939 163.642851 
L 701.175364 160.656396 
L 710.261337 157.66994 
L 719.347311 154.683485 
L 728.433284 151.697029 
L 737.519257 148.710574 
L 746.605231 145.724118 
L 755.691204 142.737663 
L 764.777177 139.751208 
L 773.863151 136.764752 
L 782.949124 133.778297 
L 792.035098 130.791841 
L 801.121071 127.805386 
L 810.207044 124.81893 
L 819.293018 121.832475 
L 828.378991 118.846019 
L 837.464964 115.859564 
L 846.550938 112.873108 
L 855.636911 109.886653 
L 864.722885 106.900197 
L 873.808858 103.913742 
L 882.894831 100.927287 
L 891.980805 97.940831 
L 901.066778 94.954376 
L 910.152751 91.96792 
L 919.238725 88.981465 
L 928.324698 85.995009 
L 937.410671 83.008554 
L 946.496645 80.022098 
L 955.582618 77.035643 
L 964.668592 74.049187 
L 973.754565 71.062732 
L 982.840538 68.076276 
L 991.926512 65.089821 
L 1001.012485 62.103365 
L 1010.098458 59.11691 
L 1019.184432 56.130455 
" style="fill:none;stroke:#ff7f0e;stroke-linecap:square;stroke-width:2;"/>
   </g>
   <g id="line2d_27">
    <path clip-path="url(#p20215f0c59)" d="M 119.673068 56.130455 
L 128.759042 56.130455 
L 137.845015 56.130455 
L 146.930988 56.130455 
L 156.016962 56.130455 
L 165.102935 56.130455 
L 174.188908 56.130455 
L 183.274882 56.130455 
L 192.360855 56.130455 
L 201.446829 56.130455 
L 210.532802 56.130455 
L 219.618775 56.130455 
L 228.704749 56.130455 
L 237.790722 56.130455 
L 246.876695 56.130455 
L 255.962669 56.130455 
L 265.048642 56.130455 
L 274.134615 56.130455 
L 283.220589 56.130455 
L 292.306562 56.130455 
L 301.392536 56.130455 
L 310.478509 56.130455 
L 319.564482 56.130455 
L 328.650456 56.130455 
L 337.736429 56.130455 
L 346.822402 56.130455 
L 355.908376 56.130455 
L 364.994349 56.130455 
L 374.080323 56.130455 
L 383.166296 56.130455 
L 392.252269 56.130455 
L 401.338243 56.130455 
L 410.424216 56.130455 
L 419.510189 56.130455 
L 428.596163 56.130455 
L 437.682136 56.130455 
L 446.76811 56.130455 
L 455.854083 56.130455 
L 464.940056 56.130455 
L 474.02603 56.130455 
L 483.112003 56.130455 
L 492.197976 56.130455 
L 501.28395 56.130455 
L 510.369923 56.130455 
L 519.455896 56.130455 
L 528.54187 56.130455 
L 537.627843 56.130455 
L 546.713817 56.130455 
L 555.79979 56.130455 
L 564.885763 56.130455 
L 573.971737 56.130455 
L 583.05771 56.130455 
L 592.143683 56.130455 
L 601.229657 56.130455 
L 610.31563 56.130455 
L 619.401604 56.130455 
L 628.487577 56.130455 
L 637.57355 56.130455 
L 646.659524 56.130455 
L 655.745497 56.130455 
L 664.83147 56.130455 
L 673.917444 56.130455 
L 683.003417 56.130455 
L 692.08939 56.130455 
L 701.175364 56.130455 
L 710.261337 56.130455 
L 719.347311 56.130455 
L 728.433284 56.130455 
L 737.519257 56.130455 
L 746.605231 56.130455 
L 755.691204 56.130455 
L 764.777177 56.130455 
L 773.863151 56.130455 
L 782.949124 56.130455 
L 792.035098 56.130455 
L 801.121071 56.130455 
L 810.207044 56.130455 
L 819.293018 56.130455 
L 828.378991 56.130455 
L 837.464964 56.130455 
L 846.550938 56.130455 
L 855.636911 56.130455 
L 864.722885 56.130455 
L 873.808858 56.130455 
L 882.894831 56.130455 
L 891.980805 56.130455 
L 901.066778 56.130455 
L 910.152751 56.130455 
L 919.238725 56.130455 
L 928.324698 56.130455 
L 937.410671 56.130455 
L 946.496645 56.130455 
L 955.582618 56.130455 
L 964.668592 56.130455 
L 973.754565 56.130455 
L 982.840538 56.130455 
L 991.926512 56.130455 
L 1001.012485 56.130455 
L 1010.098458 56.130455 
L 1019.184432 56.130455 
" style="fill:none;stroke:#2ca02c;stroke-linecap:square;stroke-width:2;"/>
   </g>
   <g id="patch_3">
    <path d="M 74.6975 366.5725 
L 74.6975 41.3475 
" style="fill:none;stroke:#000000;stroke-linecap:square;stroke-linejoin:miter;stroke-width:0.8;"/>
   </g>
   <g id="patch_4">
    <path d="M 1064.16 366.5725 
L 1064.16 41.3475 
" style="fill:none;stroke:#000000;stroke-linecap:square;stroke-linejoin:miter;stroke-width:0.8;"/>
   </g>
   <g id="patch_5">
    <path d="M 74.6975 366.5725 
L 1064.16 366.5725 
" style="fill:none;stroke:#000000;stroke-linecap:square;stroke-linejoin:miter;stroke-width:0.8;"/>
   </g>
   <g id="patch_6">
    <path d="M 74.6975 41.3475 
L 1064.16 41.3475 
" style="fill:none;stroke:#000000;stroke-linecap:square;stroke-linejoin:miter;stroke-width:0.8;"/>
   </g>
   <g id="text_15">
    <!-- 线性渐变权值 -->
    <g transform="translate(479.42875 35.3475)scale(0.3 -0.3)">
     <defs>
      <path d="M 53.90625 67.1875 
Q 53.90625 73.046875 52.734375 80.078125 
Q 57.8125 79.6875 63.28125 78.90625 
Q 62.109375 76.5625 61.71875 71.28125 
Q 61.328125 66.015625 61.71875 56.25 
L 75 58.59375 
Q 81.640625 60.15625 88.28125 62.109375 
L 89.84375 54.6875 
Q 83.203125 53.90625 76.171875 52.734375 
L 62.109375 50 
Q 62.109375 43.75 62.890625 39.0625 
L 78.125 41.796875 
Q 85.9375 43.359375 92.96875 45.703125 
L 94.140625 38.28125 
Q 87.109375 37.109375 79.296875 35.546875 
L 64.0625 32.8125 
Q 64.84375 25 67.96875 18.359375 
Q 71.484375 21.09375 74.796875 24.609375 
Q 78.125 28.125 80.859375 32.421875 
Q 86.71875 27.734375 89.84375 26.171875 
Q 84.765625 23.828125 81.828125 20.890625 
Q 78.90625 17.96875 72.265625 11.71875 
Q 76.953125 3.90625 80.65625 1.75 
Q 84.375 -0.390625 85.9375 1.5625 
Q 87.5 3.515625 88.671875 9.765625 
Q 92.1875 7.03125 96.875 5.46875 
Q 90.234375 -11.71875 82.421875 -8.390625 
Q 74.609375 -5.078125 66.015625 7.03125 
Q 60.546875 2.734375 55.265625 -0.96875 
Q 50 -4.6875 42.1875 -8.59375 
Q 40.234375 -4.6875 36.328125 -1.5625 
Q 44.140625 1.171875 49.609375 4.296875 
Q 55.078125 7.421875 62.109375 13.28125 
Q 58.59375 21.09375 57.03125 31.640625 
Q 45.3125 29.6875 40.625 28.125 
L 39.453125 35.546875 
Q 44.140625 35.546875 55.46875 37.890625 
Q 54.6875 44.140625 54.6875 48.4375 
Q 44.140625 46.09375 40.234375 44.921875 
L 38.671875 52.34375 
Q 42.578125 52.34375 53.90625 54.6875 
z
M 30.46875 76.171875 
Q 26.5625 72.65625 22.84375 66.203125 
Q 19.140625 59.765625 12.890625 50.390625 
Q 22.265625 50.78125 25.78125 50.78125 
Q 29.296875 56.640625 32.03125 63.671875 
Q 35.9375 60.9375 40.625 59.375 
Q 36.71875 55.46875 32.609375 48.828125 
Q 28.515625 42.1875 18.359375 26.171875 
Q 28.90625 26.953125 37.109375 27.734375 
Q 35.9375 23.828125 35.9375 21.09375 
Q 33.203125 21.09375 23.828125 20.109375 
Q 14.453125 19.140625 8.59375 17.578125 
Q 8.203125 21.484375 6.25 25.78125 
Q 10.9375 26.953125 14.84375 32.03125 
Q 18.75 37.109375 23.046875 44.921875 
Q 10.15625 44.140625 6.640625 41.796875 
Q 5.46875 46.09375 3.125 50.390625 
Q 8.203125 53.90625 12.890625 61.90625 
Q 17.578125 69.921875 21.484375 80.46875 
Q 25.390625 77.734375 30.46875 76.171875 
z
M 40.234375 13.671875 
Q 39.84375 9.375 40.234375 7.03125 
Q 30.46875 5.078125 22.65625 3.125 
Q 14.84375 1.171875 8.203125 -1.171875 
Q 7.03125 3.125 3.90625 7.421875 
Q 14.84375 8.59375 20.703125 9.5625 
Q 26.5625 10.546875 40.234375 13.671875 
z
M 75.78125 62.890625 
Q 73.046875 67.1875 68.359375 73.046875 
L 74.609375 76.171875 
Q 76.171875 74.21875 82.421875 66.796875 
Q 78.515625 65.234375 75.78125 62.890625 
z
" id="SimHei-32447"/>
      <path d="M 53.90625 70.703125 
Q 51.953125 63.671875 51.171875 58.59375 
L 63.28125 58.59375 
L 63.28125 66.796875 
Q 63.28125 73.4375 62.890625 79.6875 
L 71.09375 79.6875 
Q 70.703125 73.4375 70.703125 66.796875 
L 70.703125 58.59375 
L 78.515625 58.59375 
Q 83.59375 58.59375 90.625 58.984375 
L 90.625 51.5625 
Q 83.59375 51.953125 78.515625 51.953125 
L 70.703125 51.953125 
L 70.703125 31.25 
L 77.734375 31.25 
Q 83.59375 31.25 89.453125 31.640625 
L 89.453125 24.21875 
Q 83.59375 24.609375 77.734375 24.609375 
L 70.703125 24.609375 
L 70.703125 0.390625 
L 81.25 0.390625 
Q 87.890625 0.390625 94.140625 0.78125 
L 94.140625 -6.25 
Q 87.890625 -5.859375 81.25 -5.859375 
L 51.171875 -5.859375 
Q 44.140625 -5.859375 37.5 -6.25 
L 37.5 0.78125 
Q 44.140625 0.390625 50.78125 0.390625 
L 63.28125 0.390625 
L 63.28125 24.609375 
L 56.640625 24.609375 
Q 51.5625 24.609375 44.921875 24.21875 
L 44.921875 31.640625 
Q 50 31.25 56.640625 31.25 
L 63.28125 31.25 
L 63.28125 51.953125 
L 49.609375 51.953125 
Q 48.4375 46.09375 43.359375 34.765625 
Q 39.0625 37.109375 36.328125 37.5 
Q 41.796875 48.828125 43.359375 57.03125 
Q 44.921875 65.234375 46.09375 72.65625 
Q 50 71.484375 53.90625 70.703125 
z
M 26.5625 80.46875 
Q 26.171875 72.65625 26.171875 65.234375 
L 26.171875 6.640625 
Q 26.171875 -1.5625 26.5625 -9.765625 
L 18.359375 -9.765625 
Q 18.75 -1.5625 18.75 6.640625 
L 18.75 65.234375 
Q 18.75 73.4375 18.359375 80.46875 
L 26.5625 80.46875 
z
M 15.234375 58.203125 
Q 12.890625 41.796875 10.9375 33.59375 
Q 7.03125 34.375 3.90625 35.15625 
Q 6.640625 45.3125 8.203125 59.375 
Q 11.328125 58.984375 15.234375 58.203125 
z
M 33.203125 62.890625 
Q 36.328125 56.640625 39.453125 46.875 
Q 35.9375 45.703125 33.203125 44.140625 
Q 30.46875 52.734375 27.34375 60.15625 
Q 30.46875 61.71875 33.203125 62.890625 
z
" id="SimHei-24615"/>
      <path d="M 35.15625 66.40625 
Q 38.28125 76.5625 38.671875 81.640625 
Q 42.1875 80.078125 46.875 78.90625 
Q 44.921875 75.78125 42.1875 66.40625 
L 48.046875 66.40625 
Q 53.90625 66.40625 59.765625 66.796875 
L 59.765625 59.765625 
Q 53.90625 60.15625 48.046875 60.15625 
L 40.234375 60.15625 
Q 38.28125 54.296875 32.03125 40.234375 
L 41.40625 40.234375 
Q 41.40625 47.265625 41.015625 53.125 
L 48.4375 53.125 
Q 48.046875 47.65625 48.046875 40.234375 
L 59.375 40.625 
L 59.375 33.59375 
L 48.046875 33.984375 
L 48.046875 21.484375 
Q 54.296875 23.046875 58.203125 24.609375 
Q 58.203125 21.09375 58.984375 17.578125 
Q 53.90625 16.40625 48.046875 14.453125 
L 48.046875 2.734375 
Q 48.046875 -1.171875 48.4375 -8.984375 
L 41.015625 -8.984375 
Q 41.40625 -1.5625 41.40625 5.46875 
L 41.40625 12.890625 
Q 37.109375 11.71875 33.203125 10.734375 
Q 29.296875 9.765625 25 7.8125 
Q 24.21875 11.71875 22.265625 16.015625 
Q 28.515625 16.796875 41.40625 19.921875 
L 41.40625 33.984375 
Q 36.328125 33.984375 33.203125 33.78125 
Q 30.078125 33.59375 25.78125 32.8125 
Q 25 35.9375 23.046875 39.84375 
Q 25.390625 41.015625 27.921875 46.484375 
Q 30.46875 51.953125 33.203125 60.15625 
Q 31.640625 60.15625 25.78125 59.765625 
L 25.78125 66.796875 
Q 31.640625 66.40625 35.15625 66.40625 
z
M 94.140625 69.140625 
Q 89.84375 68.359375 69.921875 66.796875 
L 69.921875 47.265625 
L 86.71875 47.265625 
Q 89.0625 47.265625 95.3125 47.65625 
L 95.3125 40.625 
Q 89.0625 41.015625 86.328125 41.015625 
L 86.328125 5.46875 
Q 86.328125 -1.953125 86.71875 -9.375 
L 79.296875 -9.375 
Q 79.6875 0 79.6875 5.46875 
L 79.6875 41.015625 
L 69.921875 41.015625 
Q 69.921875 31.25 69.328125 23.625 
Q 68.75 16.015625 66.40625 7.609375 
Q 64.0625 -0.78125 58.984375 -8.984375 
Q 56.640625 -6.640625 52.734375 -4.296875 
Q 55.859375 0 58.390625 6.046875 
Q 60.9375 12.109375 61.90625 18.359375 
Q 62.890625 24.609375 63.078125 33.390625 
Q 63.28125 42.1875 63.28125 55.46875 
Q 63.28125 68.75 62.890625 72.265625 
Q 68.75 72.265625 76.5625 73.4375 
Q 84.375 74.609375 89.84375 76.953125 
Q 91.796875 72.65625 94.140625 69.140625 
z
M 25 26.5625 
Q 22.65625 21.484375 19.328125 12.5 
Q 16.015625 3.515625 11.328125 -6.25 
Q 7.421875 -3.90625 3.90625 -1.953125 
Q 7.8125 4.6875 11.71875 13.671875 
Q 15.625 22.65625 18.359375 32.421875 
Q 21.484375 28.90625 25 26.5625 
z
M 12.109375 80.46875 
Q 16.796875 76.953125 19.71875 74.609375 
Q 22.65625 72.265625 25.390625 69.921875 
Q 23.046875 66.796875 20.3125 63.671875 
Q 14.84375 69.53125 7.421875 75 
Q 9.375 76.953125 12.109375 80.46875 
z
M 8.203125 57.03125 
Q 18.359375 49.609375 22.265625 46.484375 
Q 19.53125 43.75 16.796875 40.625 
Q 11.328125 46.484375 3.90625 51.171875 
Q 5.859375 53.125 8.203125 57.03125 
z
" id="SimHei-28176"/>
      <path d="M 81.25 30.859375 
Q 77.34375 25 70.890625 17.765625 
Q 64.453125 10.546875 57.421875 5.859375 
Q 61.328125 3.515625 71.875 1.359375 
Q 82.421875 -0.78125 93.75 -1.171875 
Q 89.0625 -6.25 88.28125 -9.765625 
Q 75.78125 -8.203125 65.8125 -4.875 
Q 55.859375 -1.5625 50.390625 1.953125 
Q 43.75 -1.953125 33.59375 -5.078125 
Q 23.4375 -8.203125 10.9375 -10.546875 
Q 9.375 -6.640625 6.25 -2.734375 
Q 14.84375 -2.34375 26.359375 0.1875 
Q 37.890625 2.734375 44.140625 5.859375 
Q 35.546875 12.109375 26.171875 24.609375 
Q 21.09375 24.609375 15.625 24.21875 
L 15.625 31.25 
Q 22.65625 30.859375 32.421875 30.859375 
z
M 50.390625 82.421875 
Q 53.125 76.5625 55.46875 69.921875 
L 73.046875 69.921875 
Q 84.375 69.921875 93.359375 70.3125 
L 93.359375 62.890625 
Q 83.984375 63.28125 73.828125 63.28125 
L 64.453125 63.28125 
L 64.453125 46.09375 
Q 64.453125 39.84375 64.84375 33.59375 
L 56.25 33.59375 
Q 56.640625 39.84375 56.640625 46.09375 
L 56.640625 63.28125 
L 42.96875 63.28125 
L 42.96875 46.09375 
Q 42.96875 41.796875 43.359375 33.59375 
L 34.765625 33.59375 
Q 35.15625 41.796875 35.15625 46.09375 
L 35.15625 63.28125 
L 26.5625 63.28125 
Q 15.234375 63.28125 6.640625 62.890625 
L 6.640625 70.3125 
Q 14.84375 69.921875 26.5625 69.921875 
L 46.484375 69.921875 
Q 45.703125 73.046875 42.1875 80.078125 
Q 46.09375 80.46875 50.390625 82.421875 
z
M 34.375 24.609375 
Q 41.40625 15.234375 50.78125 9.375 
Q 60.15625 15.625 66.796875 24.609375 
L 34.375 24.609375 
z
M 75.78125 58.59375 
Q 83.984375 51.171875 92.96875 41.796875 
Q 89.84375 39.453125 85.9375 35.9375 
Q 79.296875 43.75 69.53125 53.125 
Q 73.046875 55.859375 75.78125 58.59375 
z
M 28.515625 54.6875 
Q 26.5625 52.734375 22.265625 47.265625 
Q 17.96875 41.796875 12.890625 35.9375 
Q 8.984375 38.671875 5.859375 40.625 
Q 15.234375 49.21875 20.3125 59.765625 
Q 23.828125 57.03125 28.515625 54.6875 
z
" id="SimHei-21464"/>
     </defs>
     <use xlink:href="#SimHei-32447"/>
     <use x="100" xlink:href="#SimHei-24615"/>
     <use x="200" xlink:href="#SimHei-28176"/>
     <use x="300" xlink:href="#SimHei-21464"/>
     <use x="400" xlink:href="#SimHei-26435"/>
     <use x="500" xlink:href="#SimHei-20540"/>
    </g>
   </g>
   <g id="legend_1">
    <g id="patch_7">
     <path d="M 796.41 266.21 
L 1046.66 266.21 
Q 1051.66 266.21 1051.66 261.21 
L 1051.66 146.71 
Q 1051.66 141.71 1046.66 141.71 
L 796.41 141.71 
Q 791.41 141.71 791.41 146.71 
L 791.41 261.21 
Q 791.41 266.21 796.41 266.21 
z
" style="fill:#ffffff;opacity:0.8;stroke:#cccccc;stroke-linejoin:miter;"/>
    </g>
    <g id="line2d_28">
     <path d="M 801.41 164.96 
L 851.41 164.96 
" style="fill:none;stroke:#1f77b4;stroke-linecap:square;stroke-width:2;"/>
    </g>
    <g id="line2d_29"/>
    <g id="text_16">
     <!-- $\vec w_{first}$ -->
     <g transform="translate(871.41 173.71)scale(0.25 -0.25)">
      <defs>
       <path d="M -47.015625 63.53125 
L -47.015625 68.40625 
L -10.84375 68.40625 
L -17.28125 75.984375 
L -11.140625 75.984375 
L -2.59375 65.96875 
L -11.140625 55.953125 
L -17.28125 55.953125 
L -10.84375 63.53125 
z
" id="DejaVuSans-8407"/>
       <path d="M 8.5 54.6875 
L 17.390625 54.6875 
L 19.671875 10.6875 
L 40.09375 54.6875 
L 50.484375 54.6875 
L 53.515625 10.6875 
L 72.90625 54.6875 
L 81.890625 54.6875 
L 56.890625 0 
L 46.390625 0 
L 43.703125 45.3125 
L 22.796875 0 
L 12.203125 0 
z
" id="DejaVuSans-Oblique-119"/>
       <path d="M 47.796875 75.984375 
L 46.390625 68.5 
L 37.796875 68.5 
Q 32.90625 68.5 30.6875 66.578125 
Q 28.46875 64.65625 27.390625 59.515625 
L 26.421875 54.6875 
L 41.21875 54.6875 
L 39.890625 47.703125 
L 25.09375 47.703125 
L 15.828125 0 
L 6.78125 0 
L 16.109375 47.703125 
L 7.515625 47.703125 
L 8.796875 54.6875 
L 17.390625 54.6875 
L 18.109375 58.5 
Q 19.96875 68.171875 24.625 72.078125 
Q 29.296875 75.984375 39.3125 75.984375 
z
" id="DejaVuSans-Oblique-102"/>
       <path d="M 18.3125 75.984375 
L 27.296875 75.984375 
L 25.09375 64.59375 
L 16.109375 64.59375 
z
M 14.203125 54.6875 
L 23.1875 54.6875 
L 12.5 0 
L 3.515625 0 
z
" id="DejaVuSans-Oblique-105"/>
       <path d="M 44.578125 46.390625 
Q 43.21875 47.125 41.453125 47.515625 
Q 39.703125 47.90625 37.703125 47.90625 
Q 30.515625 47.90625 25.140625 42.453125 
Q 19.78125 37.015625 18.015625 27.875 
L 12.5 0 
L 3.515625 0 
L 14.203125 54.6875 
L 23.1875 54.6875 
L 21.484375 46.1875 
Q 25.046875 50.921875 30 53.453125 
Q 34.96875 56 40.578125 56 
Q 42.046875 56 43.453125 55.828125 
Q 44.875 55.671875 46.296875 55.28125 
z
" id="DejaVuSans-Oblique-114"/>
       <path d="M 50 53.078125 
L 48.296875 44.578125 
Q 44.734375 46.53125 40.765625 47.5 
Q 36.8125 48.484375 32.625 48.484375 
Q 25.53125 48.484375 21.453125 46.0625 
Q 17.390625 43.65625 17.390625 39.5 
Q 17.390625 34.671875 26.859375 32.078125 
Q 27.59375 31.890625 27.9375 31.78125 
L 30.8125 30.90625 
Q 39.796875 28.421875 42.796875 25.6875 
Q 45.796875 22.953125 45.796875 18.21875 
Q 45.796875 9.515625 38.890625 4.046875 
Q 31.984375 -1.421875 20.796875 -1.421875 
Q 16.453125 -1.421875 11.671875 -0.578125 
Q 6.890625 0.25 1.125 2 
L 2.875 11.28125 
Q 7.8125 8.734375 12.59375 7.421875 
Q 17.390625 6.109375 21.78125 6.109375 
Q 28.375 6.109375 32.5 8.9375 
Q 36.625 11.765625 36.625 16.109375 
Q 36.625 20.796875 25.78125 23.6875 
L 24.859375 23.921875 
L 21.78125 24.703125 
Q 14.9375 26.515625 11.765625 29.46875 
Q 8.59375 32.421875 8.59375 37.015625 
Q 8.59375 45.75 15.15625 50.875 
Q 21.734375 56 33.015625 56 
Q 37.453125 56 41.671875 55.265625 
Q 45.90625 54.546875 50 53.078125 
z
" id="DejaVuSans-Oblique-115"/>
       <path d="M 42.28125 54.6875 
L 40.921875 47.703125 
L 23 47.703125 
L 17.1875 18.015625 
Q 16.890625 16.359375 16.75 15.234375 
Q 16.609375 14.109375 16.609375 13.484375 
Q 16.609375 10.359375 18.484375 8.9375 
Q 20.359375 7.515625 24.515625 7.515625 
L 33.59375 7.515625 
L 32.078125 0 
L 23.484375 0 
Q 15.484375 0 11.546875 3.125 
Q 7.625 6.25 7.625 12.59375 
Q 7.625 13.71875 7.765625 15.0625 
Q 7.90625 16.40625 8.203125 18.015625 
L 14.015625 47.703125 
L 6.390625 47.703125 
L 7.8125 54.6875 
L 15.28125 54.6875 
L 18.3125 70.21875 
L 27.296875 70.21875 
L 24.3125 54.6875 
z
" id="DejaVuSans-Oblique-116"/>
      </defs>
      <use transform="translate(70.359375 12.015625)" xlink:href="#DejaVuSans-8407"/>
      <use transform="translate(0 0.78125)" xlink:href="#DejaVuSans-Oblique-119"/>
      <use transform="translate(82.744141 -15.625)scale(0.7)" xlink:href="#DejaVuSans-Oblique-102"/>
      <use transform="translate(107.387695 -15.625)scale(0.7)" xlink:href="#DejaVuSans-Oblique-105"/>
      <use transform="translate(126.835938 -15.625)scale(0.7)" xlink:href="#DejaVuSans-Oblique-114"/>
      <use transform="translate(155.615234 -15.625)scale(0.7)" xlink:href="#DejaVuSans-Oblique-115"/>
      <use transform="translate(192.084961 -15.625)scale(0.7)" xlink:href="#DejaVuSans-Oblique-116"/>
     </g>
    </g>
    <g id="line2d_30">
     <path d="M 801.41 203.96 
L 851.41 203.96 
" style="fill:none;stroke:#ff7f0e;stroke-linecap:square;stroke-width:2;"/>
    </g>
    <g id="line2d_31"/>
    <g id="text_17">
     <!-- $\vec w_{second}$ -->
     <g transform="translate(871.41 212.71)scale(0.25 -0.25)">
      <defs>
       <path d="M 48.09375 32.234375 
Q 48.25 33.015625 48.3125 33.84375 
Q 48.390625 34.671875 48.390625 35.5 
Q 48.390625 41.453125 44.890625 44.921875 
Q 41.40625 48.390625 35.40625 48.390625 
Q 28.71875 48.390625 23.578125 44.15625 
Q 18.453125 39.9375 15.828125 32.171875 
z
M 55.90625 25.203125 
L 14.109375 25.203125 
Q 13.8125 23.34375 13.71875 22.265625 
Q 13.625 21.1875 13.625 20.40625 
Q 13.625 13.625 17.796875 9.90625 
Q 21.96875 6.203125 29.59375 6.203125 
Q 35.453125 6.203125 40.671875 7.515625 
Q 45.90625 8.84375 50.390625 11.375 
L 48.6875 2.484375 
Q 43.84375 0.53125 38.6875 -0.4375 
Q 33.546875 -1.421875 28.21875 -1.421875 
Q 16.84375 -1.421875 10.71875 4.015625 
Q 4.59375 9.46875 4.59375 19.484375 
Q 4.59375 28.03125 7.640625 35.375 
Q 10.6875 42.71875 16.609375 48.484375 
Q 20.40625 52.09375 25.65625 54.046875 
Q 30.90625 56 36.8125 56 
Q 46.09375 56 51.578125 50.4375 
Q 57.078125 44.875 57.078125 35.5 
Q 57.078125 33.25 56.78125 30.6875 
Q 56.5 28.125 55.90625 25.203125 
z
" id="DejaVuSans-Oblique-101"/>
       <path d="M 53.609375 52.59375 
L 51.8125 43.703125 
Q 48.578125 46.046875 44.9375 47.21875 
Q 41.3125 48.390625 37.40625 48.390625 
Q 33.109375 48.390625 29.21875 46.875 
Q 25.34375 45.359375 22.703125 42.578125 
Q 18.5 38.328125 16.203125 32.609375 
Q 13.921875 26.90625 13.921875 20.796875 
Q 13.921875 13.421875 17.609375 9.8125 
Q 21.296875 6.203125 28.8125 6.203125 
Q 32.515625 6.203125 36.6875 7.328125 
Q 40.875 8.453125 45.40625 10.6875 
L 43.703125 1.8125 
Q 39.796875 0.203125 35.671875 -0.609375 
Q 31.546875 -1.421875 27.203125 -1.421875 
Q 16.3125 -1.421875 10.453125 4.015625 
Q 4.59375 9.46875 4.59375 19.578125 
Q 4.59375 28.078125 7.640625 35.234375 
Q 10.6875 42.390625 16.703125 48.09375 
Q 20.796875 52 26.3125 54 
Q 31.84375 56 38.375 56 
Q 42.1875 56 45.9375 55.140625 
Q 49.703125 54.296875 53.609375 52.59375 
z
" id="DejaVuSans-Oblique-99"/>
       <path d="M 25.390625 -1.421875 
Q 15.765625 -1.421875 10.171875 4.515625 
Q 4.59375 10.453125 4.59375 20.703125 
Q 4.59375 26.65625 6.515625 32.828125 
Q 8.453125 39.015625 11.53125 43.21875 
Q 16.359375 49.75 22.3125 52.875 
Q 28.265625 56 35.796875 56 
Q 45.125 56 50.859375 50.1875 
Q 56.59375 44.390625 56.59375 35.015625 
Q 56.59375 28.515625 54.6875 22.0625 
Q 52.78125 15.625 49.703125 11.375 
Q 44.921875 4.828125 38.96875 1.703125 
Q 33.015625 -1.421875 25.390625 -1.421875 
z
M 13.921875 21 
Q 13.921875 13.578125 17.015625 9.890625 
Q 20.125 6.203125 26.421875 6.203125 
Q 35.453125 6.203125 41.375 14.078125 
Q 47.3125 21.96875 47.3125 34.078125 
Q 47.3125 41.15625 44.140625 44.765625 
Q 40.96875 48.390625 34.8125 48.390625 
Q 29.734375 48.390625 25.78125 46.015625 
Q 21.828125 43.65625 18.703125 38.8125 
Q 16.40625 35.203125 15.15625 30.5625 
Q 13.921875 25.921875 13.921875 21 
z
" id="DejaVuSans-Oblique-111"/>
       <path d="M 55.71875 33.015625 
L 49.3125 0 
L 40.28125 0 
L 46.6875 32.671875 
Q 47.125 34.96875 47.359375 36.71875 
Q 47.609375 38.484375 47.609375 39.5 
Q 47.609375 43.609375 45.015625 45.890625 
Q 42.4375 48.1875 37.796875 48.1875 
Q 30.5625 48.1875 25.34375 43.375 
Q 20.125 38.578125 18.5 30.328125 
L 12.5 0 
L 3.515625 0 
L 14.109375 54.6875 
L 23.09375 54.6875 
L 21.296875 46.09375 
Q 25.046875 50.828125 30.3125 53.40625 
Q 35.59375 56 41.40625 56 
Q 48.640625 56 52.609375 52.09375 
Q 56.59375 48.1875 56.59375 41.109375 
Q 56.59375 39.359375 56.375 37.359375 
Q 56.15625 35.359375 55.71875 33.015625 
z
" id="DejaVuSans-Oblique-110"/>
       <path d="M 41.796875 8.203125 
Q 38.1875 3.46875 33.25 1.015625 
Q 28.328125 -1.421875 22.3125 -1.421875 
Q 14.109375 -1.421875 9.34375 4.171875 
Q 4.59375 9.765625 4.59375 19.484375 
Q 4.59375 27.59375 7.46875 34.9375 
Q 10.359375 42.28125 15.828125 48.09375 
Q 19.4375 51.953125 23.96875 53.96875 
Q 28.515625 56 33.5 56 
Q 38.765625 56 42.796875 53.453125 
Q 46.828125 50.921875 49.03125 46.1875 
L 54.890625 75.984375 
L 63.921875 75.984375 
L 49.125 0 
L 40.09375 0 
z
M 13.921875 21.09375 
Q 13.921875 14.015625 17.109375 10.0625 
Q 20.3125 6.109375 25.984375 6.109375 
Q 30.171875 6.109375 33.765625 8.125 
Q 37.359375 10.15625 40.09375 14.109375 
Q 42.96875 18.21875 44.625 23.578125 
Q 46.296875 28.953125 46.296875 34.1875 
Q 46.296875 40.96875 43.09375 44.765625 
Q 39.890625 48.578125 34.28125 48.578125 
Q 30.03125 48.578125 26.359375 46.578125 
Q 22.703125 44.578125 20.125 40.828125 
Q 17.28125 36.765625 15.59375 31.390625 
Q 13.921875 26.03125 13.921875 21.09375 
z
" id="DejaVuSans-Oblique-100"/>
      </defs>
      <use transform="translate(70.359375 12.015625)" xlink:href="#DejaVuSans-8407"/>
      <use transform="translate(0 0.78125)" xlink:href="#DejaVuSans-Oblique-119"/>
      <use transform="translate(82.744141 -15.625)scale(0.7)" xlink:href="#DejaVuSans-Oblique-115"/>
      <use transform="translate(119.213867 -15.625)scale(0.7)" xlink:href="#DejaVuSans-Oblique-101"/>
      <use transform="translate(162.280273 -15.625)scale(0.7)" xlink:href="#DejaVuSans-Oblique-99"/>
      <use transform="translate(200.766602 -15.625)scale(0.7)" xlink:href="#DejaVuSans-Oblique-111"/>
      <use transform="translate(243.59375 -15.625)scale(0.7)" xlink:href="#DejaVuSans-Oblique-110"/>
      <use transform="translate(287.958984 -15.625)scale(0.7)" xlink:href="#DejaVuSans-Oblique-100"/>
     </g>
    </g>
    <g id="line2d_32">
     <path d="M 801.41 242.96 
L 851.41 242.96 
" style="fill:none;stroke:#2ca02c;stroke-linecap:square;stroke-width:2;"/>
    </g>
    <g id="line2d_33"/>
    <g id="text_18">
     <!-- $\vec w_{first}+\vec w_{second}$ -->
     <g transform="translate(871.41 251.71)scale(0.25 -0.25)">
      <defs>
       <path d="M 46 62.703125 
L 46 35.5 
L 73.1875 35.5 
L 73.1875 27.203125 
L 46 27.203125 
L 46 0 
L 37.796875 0 
L 37.796875 27.203125 
L 10.59375 27.203125 
L 10.59375 35.5 
L 37.796875 35.5 
L 37.796875 62.703125 
z
" id="DejaVuSans-43"/>
      </defs>
      <use transform="translate(70.359375 12.015625)" xlink:href="#DejaVuSans-8407"/>
      <use transform="translate(0 0.78125)" xlink:href="#DejaVuSans-Oblique-119"/>
      <use transform="translate(82.744141 -15.625)scale(0.7)" xlink:href="#DejaVuSans-Oblique-102"/>
      <use transform="translate(107.387695 -15.625)scale(0.7)" xlink:href="#DejaVuSans-Oblique-105"/>
      <use transform="translate(126.835938 -15.625)scale(0.7)" xlink:href="#DejaVuSans-Oblique-114"/>
      <use transform="translate(155.615234 -15.625)scale(0.7)" xlink:href="#DejaVuSans-Oblique-115"/>
      <use transform="translate(192.084961 -15.625)scale(0.7)" xlink:href="#DejaVuSans-Oblique-116"/>
      <use transform="translate(241.748047 0.78125)" xlink:href="#DejaVuSans-43"/>
      <use transform="translate(415.378906 12.015625)" xlink:href="#DejaVuSans-8407"/>
      <use transform="translate(345.019531 0.78125)" xlink:href="#DejaVuSans-Oblique-119"/>
      <use transform="translate(427.763672 -15.625)scale(0.7)" xlink:href="#DejaVuSans-Oblique-115"/>
      <use transform="translate(464.233398 -15.625)scale(0.7)" xlink:href="#DejaVuSans-Oblique-101"/>
      <use transform="translate(507.299805 -15.625)scale(0.7)" xlink:href="#DejaVuSans-Oblique-99"/>
      <use transform="translate(545.786133 -15.625)scale(0.7)" xlink:href="#DejaVuSans-Oblique-111"/>
      <use transform="translate(588.613281 -15.625)scale(0.7)" xlink:href="#DejaVuSans-Oblique-110"/>
      <use transform="translate(632.978516 -15.625)scale(0.7)" xlink:href="#DejaVuSans-Oblique-100"/>
     </g>
    </g>
   </g>
  </g>
 </g>
 <defs>
  <clipPath id="p20215f0c59">
   <rect height="325.225" width="989.4625" x="74.6975" y="41.3475"/>
  </clipPath>
 </defs>
</svg>
